<svg width="851" height="477" viewBox="0 0 851 477" fill="none" xmlns="http://www.w3.org/2000/svg">
<rect x="-0.000244141" y="0.424957" width="125.78" height="475.925" fill="url(#paint0_linear_886_341)"/>
<rect x="-0.000244141" y="0.424957" width="125.78" height="475.925" fill="url(#paint1_linear_886_341)"/>
<rect width="258.359" height="475.925" transform="matrix(-1 0 0 1 851 0.424988)" fill="url(#paint2_linear_886_341)"/>
<rect width="126.162" height="851" transform="matrix(-4.37114e-08 -1 -1 4.37114e-08 851 476.631)" fill="url(#paint3_linear_886_341)"/>
<rect opacity="0.6" width="235.16" height="851" transform="matrix(-4.37114e-08 -1 -1 4.37114e-08 851 476.566)" fill="url(#paint4_linear_886_341)"/>
<rect x="851" y="0.547073" width="135.684" height="851" transform="rotate(90 851 0.547073)" fill="url(#paint5_linear_886_341)"/>
<defs>
<linearGradient id="paint0_linear_886_341" x1="-16.6127" y1="238.388" x2="125.78" y2="238.388" gradientUnits="userSpaceOnUse">
<stop offset="0.210938" stop-color="#262626"/>
<stop offset="1" stop-color="#262626" stop-opacity="0"/>
</linearGradient>
<linearGradient id="paint1_linear_886_341" x1="-16.6127" y1="238.388" x2="125.78" y2="238.388" gradientUnits="userSpaceOnUse">
<stop offset="0.210938" stop-color="#262626"/>
<stop offset="1" stop-color="#262626" stop-opacity="0"/>
</linearGradient>
<linearGradient id="paint2_linear_886_341" x1="-34.123" y1="237.963" x2="258.359" y2="237.963" gradientUnits="userSpaceOnUse">
<stop offset="0.210938" stop-color="#262626"/>
<stop offset="1" stop-color="#262626" stop-opacity="0"/>
</linearGradient>
<linearGradient id="paint3_linear_886_341" x1="-16.6629" y1="425.5" x2="126.162" y2="425.5" gradientUnits="userSpaceOnUse">
<stop offset="0.210938" stop-color="#262626"/>
<stop offset="1" stop-color="#262626" stop-opacity="0"/>
</linearGradient>
<linearGradient id="paint4_linear_886_341" x1="-31.0589" y1="425.5" x2="235.16" y2="425.5" gradientUnits="userSpaceOnUse">
<stop offset="0.210938" stop-color="#262626"/>
<stop offset="1" stop-color="#262626" stop-opacity="0"/>
</linearGradient>
<linearGradient id="paint5_linear_886_341" x1="833.079" y1="426.047" x2="986.684" y2="426.047" gradientUnits="userSpaceOnUse">
<stop offset="0.104167" stop-color="#262626"/>
<stop offset="1" stop-color="#262626" stop-opacity="0"/>
</linearGradient>
</defs>
</svg>
